# xmcd
#
# Track frame offsets:
# 150
# 5492
# 7341
# 7975
# 9799
# 11432
# 13299
# 19778
# 26112
# 31552
# 42253
# 50712
# 71120
# 81944
# 97993
# 121211
# 139762
# 161497
#
# Disc length: 2405 seconds
#
#
# Revision: 0
# Processed by: cddbd v1.5.2PL0 Copyright (c) Steve Scherf et al.
# Submitted via: FreeRIP 2.944 
#
DISCID=d5096312
DTITLE=Graham Bond - Holy Majick
DYEAR=1970
DGENRE=Blues/Jazz
TTITLE0=01 Meditation Aumgu
TTITLE1=02 The Qabalistic Cross
TTITLE2=03 The Word Of The Aeon
TTITLE3=04 Invocation To The Light
TTITLE4=05 The Pentagram Ritual
TTITLE5=06 Qabalistic Cross
TTITLE6=07 Hymn Of Praise
TTITLE7=08 12 Gates To The City
TTITLE8=09 The Holy Words Iao Sabao
TTITLE9=10 Aquarius Mantra
TTITLE10=11 Enochian (Atlantean) Call
TTITLE11=12 Abrahadabra The Word Of The Aeon
TTITLE12=13 Praise 'City Of Light'
TTITLE13=14 The Qabalistic Cross Aumgu
TTITLE14=15 Return Of Arthur
TTITLE15=16 The Magician
TTITLE16=17 The Judgement
TTITLE17=18 My Archangel Mikael
EXTD=
EXTT0=
EXTT1=
EXTT2=
EXTT3=
EXTT4=
EXTT5=
EXTT6=
EXTT7=
EXTT8=
EXTT9=
EXTT10=
EXTT11=
EXTT12=
EXTT13=
EXTT14=
EXTT15=
EXTT16=
EXTT17=
PLAYORDER=
